<svg xmlns="http://www.w3.org/2000/svg" data-name="Layer 1" viewBox="0 0 168 168" id="instruction"><path fill="#2d4356" d="M23.681 76.279a2 2 0 0 0 2-2v-8.941a62.837 62.837 0 0 1 2.637-15.146c7.8-25.034 33.4-26.157 34.43-26.192h.238c12.148 0 21.856 3.555 28.855 10.568C103.967 46.715 104 65.394 104 65.581a2 2 0 0 0 1.986 2.013H106a2 2 0 0 0 2-1.984c.006-.831 0-20.489-13.3-33.843C86.919 23.958 76.253 20 62.94 20h-.26c-.295.009-29.521 1.205-38.181 29a66.366 66.366 0 0 0-2.818 16.336v8.941a2 2 0 0 0 2 2.002zM45.1 116.326a2 2 0 0 0-3.626 1.687c.276.6 7.029 14.66 29.763 18.562a2.022 2.022 0 0 0 .34.029 2 2 0 0 0 .336-3.972c-20.525-3.523-26.556-15.763-26.813-16.306z"></path><path fill="#2d4356" d="M64.363 54.358a6.6 6.6 0 0 1 4.712 1.936c1.705 1.76 2.168 6.7 2.5 10.3.088.934.172 1.824.268 2.627 1.3 10.784 6.422 17.444 12.1 21.559a38.263 38.263 0 0 1 2.571-2.98c-5-3.581-9.537-9.445-10.694-19.061-.093-.772-.172-1.625-.256-2.522-.436-4.658-.932-9.939-3.615-12.709a10.566 10.566 0 0 0-7.532-3.152 11.712 11.712 0 0 0-8.395 3.315c-3.482 3.407-2.668 10.441-1.631 16.767 1.562 9.517 4.391 26.705 22.249 36.657a37.994 37.994 0 0 1 .978-4.055c-15.3-9.075-17.769-24.04-19.28-33.248-.541-3.3-1.807-11.022.48-13.26a7.941 7.941 0 0 1 5.545-2.174Z"></path><path fill="#2d4356" d="M99.245 78.981a37.722 37.722 0 0 1 6.5-2.068 1.98 1.98 0 0 0-1.156-.6c-.123-.018-12.355-1.877-12.913-11.852-.007-.279-1.013-27.944-27.539-29.181-.241 0-24.161.3-25.718 22.855l-.556 16.609c-.232 6.928-3.177 18.652-12.734 18.652a2 2 0 0 0 0 4c11.035 0 16.355-11.31 16.732-22.518l.552-16.539C43.687 39.862 62.765 39.294 64.1 39.277c22.632 1.094 23.548 24.3 23.578 25.344.444 7.949 6.359 12.335 11.567 14.36zM112.992 92a13.023 13.023 0 0 0-10.621 5.468 2 2 0 1 0 3.258 2.321A9.024 9.024 0 0 1 112.992 96a8.937 8.937 0 1 1 0 17.873 2 2 0 0 0-2 2V126a2 2 0 0 0 4 0v-8.28a12.932 12.932 0 0 0-2-25.72zM76.19 117.8c-8.79-3.8-18.318-10.415-23.357-21.883a2 2 0 0 0-3.645-.04A25.635 25.635 0 0 1 38.94 106.3a22.752 22.752 0 0 1-7.055 2.394 2 2 0 0 0 .654 3.946 26.756 26.756 0 0 0 8.291-2.815 29.393 29.393 0 0 0 9.988-8.938C57.2 112.565 67.739 119 76.982 122.551a37.7 37.7 0 0 1-.792-4.751zm8.317 20.127q-1.169-1.439-2.2-2.989a1.983 1.983 0 0 0 2.2 2.989zM124 33a3 3 0 1 0-3-3 3 3 0 0 0 3 3zm0-4.5a1.5 1.5 0 1 1-1.5 1.5 1.5 1.5 0 0 1 1.5-1.5zM7 16a2 2 0 1 0-2 2 2 2 0 0 0 2-2zm-2 1a1 1 0 1 1 1-1 1 1 0 0 1-1 1zM37 6a2 2 0 1 0-2-2 2 2 0 0 0 2 2zm0-3a1 1 0 1 1-1 1 1 1 0 0 1 1-1zM6 58a2 2 0 1 0 2-2 2 2 0 0 0-2 2zm2-1a1 1 0 1 1-1 1 1 1 0 0 1 1-1z"></path><circle cx="2" cy="146" r="2" fill="#2d4356"></circle><path fill="#2d4356" d="M11 144H8a2 2 0 0 0 0 4h3a2 2 0 0 0 0-4zm149 0h-3a2 2 0 0 0 0 4h3a2 2 0 0 0 0-4z"></path><circle cx="166" cy="146" r="2" fill="#2d4356"></circle><path fill="#2d4356" d="M150.721 144H130a34 34 0 1 0-32 0H69.952a1.993 1.993 0 0 0-1.336-.312c-15.351 1.968-28.261-5.222-38.38-21.369a2 2 0 1 0-3.389 2.124c6.323 10.09 13.306 16.125 20.144 19.557H17.279a2.017 2.017 0 1 0 0 4h133.442a2.017 2.017 0 1 0 0-4ZM84 114a30 30 0 1 1 30 30 30.034 30.034 0 0 1-30-30Z"></path><circle cx="22" cy="114" r="2" fill="#0bceb2"></circle><circle cx="24" cy="85" r="2" fill="#0bceb2"></circle><circle cx="112.999" cy="134" r="2" fill="#0bceb2"></circle><path fill="#0bceb2" d="m129.583 64.011 1.487-1.955-.939-.532-.954 2.19h-.032l-.97-2.175-.955.548 1.471 1.909v.031l-2.3-.297v1.064l2.316-.297v.031l-1.487 1.908.892.564 1.018-2.206h.03l.939 2.19.986-.563-1.502-1.878v-.031l2.362.282V63.73l-2.362.312v-.031zM149.281 5.769l.856-1.126-.54-.306-.55 1.261h-.018l-.558-1.253-.551.316.848 1.099v.018l-1.325-.171v.613l1.334-.171v.018l-.857 1.099.514.324.586-1.27h.018l.54 1.261.568-.324-.865-1.082v-.018l1.36.163v-.613l-1.36.18v-.018zM159 47.713V46.67l-2.317.307v-.031l1.459-1.918-.921-.522-.936 2.148h-.032l-.951-2.133-.937.538 1.443 1.872v.031l-2.256-.292v1.043l2.271-.291v.031l-1.458 1.872.875.553.998-2.165h.03l.921 2.149.967-.552-1.473-1.842v-.031l2.317.276zM84.702 5.023l-1.258 1.615.754.477.862-1.867h.025l.795 1.853.834-.476-1.271-1.589v-.027l1.999.239v-.9l-1.999.264v-.026l1.258-1.655-.794-.45-.808 1.853h-.026l-.821-1.84-.808.464 1.245 1.615v.026l-1.947-.251v.9l1.96-.252v.027zM118.154 153h-8.308a2.006 2.006 0 0 0 0 4h8.308a2.006 2.006 0 0 0 0-4zm-60 0h-8.308a2.006 2.006 0 0 0 0 4h8.308a2.006 2.006 0 0 0 0-4zM104 153H64a2 2 0 0 0 0 4h15.94v2H72a2 2 0 0 0 0 4h25a2 2 0 0 0 0-4h-8.94v-2H104a2 2 0 0 0 0-4z"></path></svg>